<svg width="95" height="29" viewBox="0 0 95 29" fill="none" xmlns="http://www.w3.org/2000/svg">
<path d="M23.332 28.038L19 18.538C13.908 18.766 9.386 20.78 4.218 20.894L1.026 28.076L0.494 27.848L11.742 2.54L11.59 2.122L12.084 1.78L14.516 -0.00600183L26.258 25.91L23.332 28.038ZM4.484 20.286C9.462 20.134 13.832 18.234 18.734 17.968L12.084 3.262L4.484 20.286ZM44.9145 7.214L48.4865 6.606V27.43L44.9145 28V23.63C43.6605 26.404 40.8485 28.114 37.7705 28C33.0205 28 29.4865 25.644 29.4865 20.286V7.214L33.0205 6.606V20.286C33.0205 24.58 34.2365 27.43 38.3785 27.43C42.5585 27.43 44.9145 23.858 44.9145 20.286V7.214ZM63.5963 6.606C67.7383 6.606 70.1323 9.608 70.1323 13.75L66.5603 14.358C66.5603 11.356 65.9523 7.214 62.9883 7.214C60.0243 7.214 57.6303 10.786 57.6303 14.358V27.43L54.0963 28V7.822L57.6303 7.214V10.748C58.5423 8.24 60.9363 6.606 63.5963 6.606ZM90.896 7.214L94.468 6.606V27.43L90.896 28V25.72C88.844 27.278 86.336 28.076 83.752 28C77.824 28 73.074 24.466 73.074 17.322C73.074 10.178 77.824 6.606 83.752 6.606C86.336 6.53 88.844 7.366 90.896 8.924V7.214ZM84.93 27.43C87.324 27.316 89.528 26.1 90.896 24.162V11.052C88.73 8.734 85.728 7.366 82.574 7.214C77.824 7.214 76.608 12.572 76.608 17.322C76.608 24.466 81.358 27.43 84.93 27.43Z" fill="white"/>
</svg>
